<svg width="18" height="18" viewBox="0 0 18 18" fill="none" xmlns="http://www.w3.org/2000/svg">
<path d="M8.5802 1.5C6.65745 1.50548 4.81028 2.24918 3.42017 3.5775V2.25C3.42017 2.05109 3.34115 1.86032 3.2005 1.71967C3.05984 1.57902 2.86908 1.5 2.67017 1.5C2.47125 1.5 2.28049 1.57902 2.13983 1.71967C1.99919 1.86032 1.92017 2.05109 1.92017 2.25V5.625C1.92017 5.82391 1.99919 6.01468 2.13983 6.15533C2.28049 6.29598 2.47125 6.375 2.67017 6.375H6.04517C6.24408 6.375 6.43484 6.29598 6.5755 6.15533C6.71615 6.01468 6.79517 5.82391 6.79517 5.625C6.79517 5.42609 6.71615 5.23532 6.5755 5.09467C6.43484 4.95402 6.24408 4.875 6.04517 4.875H4.24517C4.92895 4.15276 5.78154 3.61182 6.72626 3.30086C7.67097 2.98988 8.67815 2.91864 9.65727 3.09353C10.6363 3.26841 11.5566 3.68395 12.3352 4.30274C13.1139 4.92154 13.7265 5.72419 14.118 6.6385C14.5094 7.5528 14.6674 8.55008 14.5778 9.5406C14.4882 10.5311 14.1538 11.4839 13.6046 12.3131C13.0554 13.1423 12.3087 13.822 11.4317 14.291C10.5546 14.76 9.57477 15.0037 8.5802 15C8.38122 15 8.1905 15.0791 8.04987 15.2197C7.90917 15.3603 7.8302 15.5511 7.8302 15.75C7.8302 15.9489 7.90917 16.1397 8.04987 16.2803C8.1905 16.4209 8.38122 16.5 8.5802 16.5C10.5693 16.5 12.477 15.7098 13.8834 14.3033C15.29 12.8968 16.0802 10.9891 16.0802 9C16.0802 7.01088 15.29 5.10322 13.8834 3.6967C12.477 2.29018 10.5693 1.5 8.5802 1.5ZM8.5802 6C8.38122 6 8.1905 6.07902 8.04987 6.21967C7.90917 6.36032 7.8302 6.55109 7.8302 6.75V9C7.8302 9.1989 7.90917 9.3897 8.04987 9.53032C8.1905 9.67095 8.38122 9.75 8.5802 9.75H10.0802C10.2791 9.75 10.4698 9.67095 10.6105 9.53032C10.7511 9.3897 10.8302 9.1989 10.8302 9C10.8302 8.8011 10.7511 8.6103 10.6105 8.46968C10.4698 8.32905 10.2791 8.25 10.0802 8.25H9.3302V6.75C9.3302 6.55109 9.25115 6.36032 9.11052 6.21967C8.96982 6.07902 8.7791 6 8.5802 6Z" fill="white"/>
</svg>
