<svg width="265" height="39" viewBox="0 0 265 39" fill="none" xmlns="http://www.w3.org/2000/svg">
<rect x="14.6733" y="14.6733" width="9.65347" height="9.65347" rx="4.82673" fill="#E83232"/>
<path d="M24.3267 29.1535C24.3267 26.4877 26.4877 24.3267 29.1535 24.3267C30.5892 24.3267 31.8584 23.3936 32.2867 22.0232L32.7735 20.4653L33.1838 18.1485L33.582 14.7698L33.9802 9.94307L34.748 11.685C36.358 15.3376 36.8834 19.3762 36.2615 23.3191L36.1954 23.7381C36.0703 24.5315 36.0074 25.3335 36.0074 26.1368V26.7401V26.9332C36.0074 27.493 35.5536 27.9468 34.9938 27.9468C34.434 27.9468 33.9802 28.4006 33.9802 28.9604V29.1535C33.9802 31.8192 31.8192 33.9802 29.1535 33.9802C26.4877 33.9802 24.3267 31.8192 24.3267 29.1535Z" fill="#E83232"/>
<path d="M29.1535 14.625C26.4878 14.625 24.3267 12.464 24.3267 9.79827C24.3267 8.36249 23.3937 7.09331 22.0232 6.66505L20.4654 6.17822L18.1485 5.76795L14.7698 5.36974L9.94308 4.97154L11.685 4.20371C15.3376 2.59369 19.3762 2.0683 23.3192 2.69022L23.7381 2.7563C24.5316 2.88145 25.3335 2.94431 26.1368 2.94431H26.7401H26.9332C27.493 2.94431 27.9468 3.39812 27.9468 3.95792C27.9468 4.51772 28.4006 4.97154 28.9604 4.97154H29.1535C31.8192 4.97154 33.9802 7.13254 33.9802 9.79827C33.9802 12.464 31.8192 14.625 29.1535 14.625Z" fill="#E83232"/>
<path d="M14.625 9.84653C14.625 12.5123 12.464 14.6733 9.79827 14.6733C8.36249 14.6733 7.09331 15.6064 6.66505 16.9768L6.17822 18.5347L5.76795 20.8515L5.36974 24.2302L4.97154 29.0569L4.20371 27.315C2.59369 23.6624 2.0683 19.6238 2.69022 15.6809L2.7563 15.2619C2.88145 14.4685 2.94431 13.6665 2.94431 12.8632V12.2599V12.0668C2.94431 11.507 3.39812 11.0532 3.95792 11.0532C4.51772 11.0532 4.97154 10.5994 4.97154 10.0396V9.84653C4.97154 7.1808 7.13254 5.0198 9.79827 5.0198C12.464 5.0198 14.625 7.1808 14.625 9.84653Z" fill="#E83232"/>
<path d="M9.94307 24.4233C12.6088 24.4233 14.7698 26.5843 14.7698 29.25C14.7698 30.6858 15.7029 31.955 17.0733 32.3832L18.6312 32.87L20.948 33.2803L24.3267 33.6785L29.1535 34.0767L27.4115 34.8446C23.7589 36.4546 19.7203 36.98 15.7774 36.358L15.3584 36.292C14.565 36.1668 13.763 36.104 12.9598 36.104H12.1634C11.6036 36.104 11.1498 35.6501 11.1498 35.0903C11.1498 34.5305 10.6959 34.0767 10.1361 34.0767H9.94307C7.27734 34.0767 5.11634 31.9157 5.11634 29.25C5.11634 26.5843 7.27734 24.4233 9.94307 24.4233Z" fill="#E83232"/>
<path d="M4 19.5C4 10.9396 10.9396 4 19.5 4C28.0604 4 35 10.9396 35 19.5C35 28.0604 28.0604 35 19.5 35C10.9396 35 4 28.0604 4 19.5Z" stroke="#E83232" stroke-width="8"/>
<path d="M54.9688 28.0205C54.9688 27.3096 55.21 26.7129 55.6924 26.2305C56.2002 25.7227 56.8096 25.4688 57.5205 25.4688H63.3477L62.3574 22.6504C61.9512 21.6094 61.5449 20.6318 61.1387 19.7178C60.7578 18.7783 60.3135 17.9277 59.8057 17.166C59.3486 16.4043 58.8281 15.998 58.2441 15.9473C57.6348 15.998 57.0889 16.4043 56.6064 17.166C56.124 17.9277 55.6797 18.7783 55.2734 19.7178C54.8926 20.6318 54.499 21.6094 54.0928 22.6504L50.4746 32.5527C50.2207 33.0859 49.8906 33.5303 49.4844 33.8857C49.1035 34.2158 48.5195 34.3809 47.7324 34.3809C46.9961 34.3809 46.3867 34.127 45.9043 33.6191C45.4473 33.1113 45.2441 32.502 45.2949 31.791C45.3203 31.4609 45.3965 31.1562 45.5234 30.877L49.7129 20.0605C50.8809 17.2168 52.0488 14.9189 53.2168 13.167C54.3594 11.4404 56.0352 10.5645 58.2441 10.5391C60.4277 10.5645 62.0908 11.4404 63.2334 13.167C64.4014 14.8682 65.5693 17.166 66.7373 20.0605L70.9268 30.877C71.0537 31.1562 71.1299 31.4609 71.1553 31.791C71.2061 32.502 70.9902 33.1113 70.5078 33.6191C70.0508 34.127 69.4541 34.3809 68.7178 34.3809C67.8799 34.3809 67.2578 34.2158 66.8516 33.8857C66.4707 33.5303 66.1533 33.0859 65.8994 32.5527L65.1758 30.5723H57.5205C56.8096 30.5723 56.2129 30.3184 55.7305 29.8105C55.2227 29.3281 54.9688 28.7314 54.9688 28.0205ZM87.1133 16.0615C88.4336 16.0615 89.7285 16.2139 90.998 16.5186C92.293 16.8232 93.5244 17.2803 94.6924 17.8896C95.8604 18.4736 96.8887 19.2607 97.7773 20.251C98.6914 21.2412 99.1865 22.4219 99.2627 23.793V25.3926V31.9053C99.1104 33.4287 98.2725 34.2539 96.749 34.3809C96.0381 34.3809 95.416 34.1523 94.8828 33.6953C94.375 33.2129 94.1211 32.6162 94.1211 31.9053V30.2295V24.9736C94.0703 24.1865 93.7656 23.5391 93.207 23.0312C92.6738 22.498 92.0645 22.0791 91.3789 21.7744C90.7188 21.4697 90.0205 21.2412 89.2842 21.0889C88.5732 20.9365 87.8496 20.8604 87.1133 20.8604C86.377 20.8604 85.6406 20.9365 84.9043 21.0889C84.1934 21.2412 83.4951 21.4697 82.8096 21.7744C82.1494 22.0791 81.54 22.498 80.9814 23.0312C80.4482 23.5391 80.1562 24.1865 80.1055 24.9736V30.2295V31.9053C79.9785 33.4287 79.1533 34.2539 77.6299 34.3809C76.9189 34.3809 76.2969 34.1523 75.7637 33.6953C75.2559 33.2129 75.002 32.6162 75.002 31.9053V25.3926V23.793C75.0781 22.4219 75.5605 21.2412 76.4492 20.251C77.3379 19.2607 78.3662 18.4736 79.5342 17.8896C80.7021 17.2803 81.9209 16.8232 83.1904 16.5186C84.4854 16.2139 85.793 16.0615 87.1133 16.0615ZM106.728 16.252C107.413 16.2773 107.997 16.5312 108.479 17.0137C108.962 17.4707 109.216 18.042 109.241 18.7275V31.9053C109.089 33.4287 108.251 34.2539 106.728 34.3809C106.017 34.3809 105.395 34.1523 104.861 33.6953C104.354 33.2129 104.1 32.6162 104.1 31.9053V18.7275C104.125 18.0166 104.392 17.4326 104.899 16.9756C105.407 16.4932 106.017 16.252 106.728 16.252ZM103.528 11.3008C103.528 10.5898 103.833 9.98047 104.442 9.47266C105.052 8.96484 105.788 8.71094 106.651 8.71094C107.515 8.71094 108.251 8.96484 108.86 9.47266C109.47 9.98047 109.774 10.5898 109.774 11.3008C109.774 12.0371 109.47 12.6592 108.86 13.167C108.251 13.6748 107.515 13.9287 106.651 13.9287C105.788 13.9287 105.052 13.6748 104.442 13.167C103.833 12.6592 103.528 12.0371 103.528 11.3008ZM135.178 11.4531C136.473 11.4785 137.628 11.8848 138.644 12.6719C139.659 13.459 140.472 14.3984 141.081 15.4902C141.716 16.582 142.186 17.7373 142.49 18.9561C142.795 20.1748 142.947 21.4189 142.947 22.6885C142.947 24.3643 142.681 26.0146 142.147 27.6396C141.64 29.2393 140.789 30.6611 139.596 31.9053C138.428 33.1494 136.955 33.8223 135.178 33.9238H130.76V36.4756C130.607 37.999 129.77 38.8242 128.246 38.9512C127.535 38.9512 126.913 38.71 126.38 38.2275C125.872 37.7705 125.618 37.1865 125.618 36.4756V33.9238H121.124C119.347 33.8477 117.861 33.1875 116.668 31.9434C115.475 30.6992 114.624 29.2646 114.116 27.6396C113.634 26.0146 113.393 24.3643 113.393 22.6885C113.393 21.0127 113.646 19.375 114.154 17.7754C114.662 16.1504 115.5 14.7158 116.668 13.4717C117.861 12.2021 119.347 11.5293 121.124 11.4531H135.178ZM133.883 28.8203C134.848 28.7695 135.647 28.4141 136.282 27.7539C136.942 27.0684 137.412 26.2812 137.691 25.3926C137.971 24.5039 138.11 23.6025 138.11 22.6885C138.11 21.7744 137.958 20.8857 137.653 20.0225C137.374 19.1338 136.917 18.3467 136.282 17.6611C135.647 16.9756 134.848 16.6074 133.883 16.5566H122.305C121.34 16.6074 120.54 16.9756 119.905 17.6611C119.271 18.3467 118.801 19.1338 118.496 20.0225C118.217 20.8857 118.077 21.7744 118.077 22.6885C118.077 23.6025 118.217 24.5039 118.496 25.3926C118.775 26.2812 119.232 27.0684 119.867 27.7539C120.527 28.4141 121.34 28.7695 122.305 28.8203H125.618V26.9541C125.644 26.2432 125.91 25.6592 126.418 25.2021C126.926 24.7197 127.535 24.4785 128.246 24.4785C128.932 24.5039 129.516 24.7578 129.998 25.2402C130.48 25.6973 130.734 26.2686 130.76 26.9541V28.8203H133.883ZM159.362 34.5713C158.042 34.5713 156.734 34.4189 155.439 34.1143C154.17 33.8096 152.951 33.3652 151.783 32.7812C150.615 32.1719 149.587 31.3721 148.698 30.3818C147.81 29.3916 147.327 28.2109 147.251 26.8398V25.2402V18.7275C147.251 18.0166 147.505 17.4326 148.013 16.9756C148.546 16.4932 149.168 16.252 149.879 16.252C151.402 16.3789 152.228 17.2041 152.354 18.7275V20.4033V25.6592C152.405 26.4463 152.697 27.1064 153.23 27.6396C153.789 28.1475 154.398 28.5537 155.059 28.8584C155.744 29.1631 156.442 29.3916 157.153 29.5439C157.89 29.6963 158.626 29.7725 159.362 29.7725C160.099 29.7725 160.822 29.6963 161.533 29.5439C162.27 29.3916 162.968 29.1631 163.628 28.8584C164.313 28.5537 164.923 28.1475 165.456 27.6396C166.015 27.1064 166.319 26.4463 166.37 25.6592V20.4033V18.7275C166.37 18.0166 166.624 17.4326 167.132 16.9756C167.665 16.4932 168.287 16.252 168.998 16.252C170.521 16.3789 171.359 17.2041 171.512 18.7275V25.2402V26.8398C171.436 28.2109 170.94 29.3916 170.026 30.3818C169.138 31.3721 168.109 32.1719 166.941 32.7812C165.773 33.3652 164.542 33.8096 163.247 34.1143C161.978 34.4189 160.683 34.5713 159.362 34.5713ZM184.271 33.9238C182.036 33.8477 180.348 33.3271 179.205 32.3623C178.062 31.3721 177.237 30.2676 176.729 29.0488C176.222 27.8047 175.968 26.5479 175.968 25.2783C175.968 23.958 176.209 22.6885 176.691 21.4697C177.199 20.2256 178.024 19.1211 179.167 18.1562C180.335 17.166 181.808 16.6582 183.585 16.6328H195.925C197.702 16.6582 199.162 17.166 200.305 18.1562C201.473 19.1211 202.298 20.2256 202.78 21.4697C203.288 22.6885 203.542 23.958 203.542 25.2783C203.542 26.5479 203.288 27.8047 202.78 29.0488C202.272 30.2676 201.447 31.3721 200.305 32.3623C199.162 33.3271 197.474 33.8477 195.239 33.9238H184.271ZM183.433 21.7363C182.95 21.7363 182.531 21.9395 182.176 22.3457C181.82 22.7266 181.554 23.1836 181.376 23.7168C181.224 24.2246 181.147 24.7324 181.147 25.2402C181.147 25.7734 181.224 26.3066 181.376 26.8398C181.554 27.3477 181.82 27.8047 182.176 28.2109C182.531 28.5918 182.95 28.7949 183.433 28.8203H196.077C196.56 28.7949 196.979 28.5918 197.334 28.2109C197.689 27.8047 197.943 27.3477 198.096 26.8398C198.273 26.3066 198.362 25.7734 198.362 25.2402C198.362 24.7324 198.273 24.2246 198.096 23.7168C197.943 23.1836 197.689 22.7266 197.334 22.3457C196.979 21.9395 196.56 21.7363 196.077 21.7363H183.433ZM216.187 10.8438C216.897 10.8438 217.507 11.085 218.015 11.5674C218.522 12.0244 218.789 12.6084 218.814 13.3193V16.6328H231.764C232.475 16.6328 233.084 16.874 233.592 17.3564C234.074 17.8643 234.315 18.4736 234.315 19.1846C234.315 19.8955 234.062 20.5049 233.554 21.0127C233.071 21.4951 232.475 21.7363 231.764 21.7363H218.814V22.498C218.789 23.5391 218.853 24.5039 219.005 25.3926C219.183 26.2559 219.589 27.0303 220.224 27.7158C220.858 28.4014 221.658 28.7695 222.623 28.8203H231.916C232.627 28.8457 233.211 29.1123 233.668 29.6201C234.15 30.1279 234.392 30.7373 234.392 31.4482C234.366 32.1338 234.112 32.7178 233.63 33.2002C233.173 33.6572 232.602 33.8984 231.916 33.9238H221.328C219.551 33.8223 218.078 33.2256 216.91 32.1338C215.768 31.0166 214.942 29.6582 214.435 28.0586C213.952 26.459 213.698 24.7578 213.673 22.9551V21.7363H209.293C208.582 21.7363 207.985 21.4824 207.503 20.9746C206.995 20.4922 206.741 19.8955 206.741 19.1846C206.741 18.4736 206.982 17.877 207.465 17.3945C207.973 16.8867 208.582 16.6328 209.293 16.6328H213.673V13.3193C213.698 12.6338 213.952 12.0625 214.435 11.6055C214.917 11.123 215.501 10.8691 216.187 10.8438ZM245.855 33.9238C243.621 33.8477 241.933 33.3271 240.79 32.3623C239.647 31.3721 238.822 30.2676 238.314 29.0488C237.807 27.8047 237.553 26.5479 237.553 25.2783C237.553 23.958 237.794 22.6885 238.276 21.4697C238.784 20.2256 239.609 19.1211 240.752 18.1562C241.92 17.166 243.393 16.6582 245.17 16.6328H259.643C260.354 16.6328 260.95 16.874 261.433 17.3564C261.94 17.8135 262.194 18.3721 262.194 19.0322C262.194 19.7178 261.94 20.3018 261.433 20.7842C260.95 21.2412 260.354 21.4697 259.643 21.4697H245.398C244.84 21.4697 244.345 21.6602 243.913 22.041C243.507 22.4219 243.202 22.917 242.999 23.5264C242.821 24.1357 242.732 24.7324 242.732 25.3164C242.732 25.9512 242.821 26.5732 242.999 27.1826C243.202 27.792 243.507 28.2871 243.913 28.668C244.345 29.0234 244.84 29.2139 245.398 29.2393H259.643C260.354 29.2393 260.95 29.4678 261.433 29.9248C261.94 30.3818 262.194 30.9277 262.194 31.5625C262.194 32.2227 261.94 32.7812 261.433 33.2383C260.95 33.6953 260.354 33.9238 259.643 33.9238H245.855ZM261.737 25.2021C261.737 25.6846 261.521 26.1035 261.09 26.459C260.709 26.7891 260.227 26.9541 259.643 26.9541H247.188C246.604 26.9541 246.109 26.7891 245.703 26.459C245.297 26.1035 245.094 25.6846 245.094 25.2021C245.094 24.7451 245.297 24.3389 245.703 23.9834C246.109 23.6533 246.604 23.4883 247.188 23.4883H259.643C260.227 23.4883 260.722 23.666 261.128 24.0215C261.534 24.3516 261.737 24.7451 261.737 25.2021Z" fill="white"/>
</svg>
