<svg width="134" height="42" viewBox="0 0 134 42" fill="none" xmlns="http://www.w3.org/2000/svg">
<rect width="134" height="40" rx="20" fill="#E83232"/>
<path d="M20.368 20.928C19.792 21.0987 19.2907 21.2053 18.864 21.248C18.4587 21.2693 17.9573 21.2587 17.36 21.216C16.7627 21.152 16.272 21.12 15.888 21.12C14.9067 21.12 14.288 21.4293 14.032 22.048L13.552 24.224C13.4027 24.992 12.976 25.5253 12.272 25.824C12.1227 25.2693 12.048 24.8107 12.048 24.448C12.048 24.064 12.112 23.648 12.24 23.2C12.3893 22.752 12.5387 22.368 12.688 22.048C12.8587 21.7067 13.0293 21.3013 13.2 20.832C13.3707 20.3627 13.4773 19.9253 13.52 19.52C13.4987 19.328 13.584 19.136 13.776 18.944C13.9893 18.752 14.2027 18.592 14.416 18.464C14.6507 18.336 14.7787 18.2613 14.8 18.24C15.2693 17.8987 15.888 17.1413 16.656 15.968C17.4453 14.7733 17.8293 13.8987 17.808 13.344C17.808 13.152 17.7547 12.9067 17.648 12.608C17.5413 12.3093 17.4667 12.096 17.424 11.968C17.3813 11.84 17.4347 11.648 17.584 11.392C17.6693 11.2427 18.032 11.0507 18.672 10.816C19.3333 10.5813 19.8133 10.4427 20.112 10.4C20.1333 10.5707 20.1867 11.1467 20.272 12.128C20.3573 13.1093 20.4747 13.7173 20.624 13.952C21.0933 14.8053 21.776 16.1173 22.672 17.888C23.568 19.6587 24.4107 21.1947 25.2 22.496C25.8613 23.6053 26.192 24.544 26.192 25.312C25.552 25.2053 25.0187 24.9173 24.592 24.448C24.3787 24.2347 23.888 23.3493 23.12 21.792C22.6507 20.8107 21.7333 20.5227 20.368 20.928ZM17.04 17.088C16.6133 17.6213 16.4213 18.1333 16.464 18.624C16.528 19.1147 16.9013 19.4133 17.584 19.52C19.3547 19.776 20.784 19.776 21.872 19.52C21.5947 18.6453 21.1573 17.7387 20.56 16.8C19.984 15.8613 19.408 15.168 18.832 14.72C18.6613 14.9333 18.064 15.7227 17.04 17.088ZM38.6355 10.656C39.0195 11.1253 39.2968 11.7867 39.4675 12.64C39.6595 13.472 39.7448 14.3253 39.7235 15.2C39.7022 16.0533 39.6808 16.9813 39.6595 17.984C39.6382 18.432 39.6702 19.0507 39.7555 19.84C39.8622 20.608 39.9582 21.312 40.0435 21.952C40.1502 22.5707 40.1715 23.232 40.1075 23.936C40.0648 24.6187 39.9155 25.1627 39.6595 25.568C36.8435 23.7973 33.8035 21.7813 30.5395 19.52C30.3475 19.904 30.1342 20.7147 29.8995 21.952C29.6648 23.168 29.5475 23.7867 29.5475 23.808C29.3128 23.7653 28.9822 23.7653 28.5555 23.808C28.4062 23.232 28.3955 22.4747 28.5235 21.536C28.6728 20.5973 28.8008 19.8187 28.9075 19.2C29.0355 18.5813 28.9928 17.9307 28.7795 17.248C28.7795 17.2053 28.7048 17.0667 28.5555 16.832C28.4062 16.5973 28.2675 16.352 28.1395 16.096C28.0115 15.84 27.9795 15.6267 28.0435 15.456C28.0648 15.392 28.1288 15.328 28.2355 15.264C28.3635 15.1787 28.4488 15.0827 28.4915 14.976C28.5555 14.8693 28.5768 14.7307 28.5555 14.56C28.5128 14.2613 28.5022 13.856 28.5235 13.344C28.5448 12.832 28.5982 12.512 28.6835 12.384C28.8115 12.1707 29.0995 11.9253 29.5475 11.648C29.8248 11.904 30.0702 12.8 30.2835 14.336C30.5182 15.8507 30.6568 16.6613 30.6995 16.768C30.8488 17.2587 31.0408 17.6747 31.2755 18.016C31.5315 18.3573 31.7662 18.624 31.9795 18.816C32.1928 18.9867 32.5235 19.2427 32.9715 19.584C33.4408 19.904 33.8248 20.192 34.1235 20.448C35.1048 21.2587 35.7768 21.7707 36.1395 21.984C36.8435 22.3467 37.6755 22.528 38.6355 22.528C38.3155 21.12 38.1555 18.6773 38.1555 15.2C38.1555 15.0507 38.1022 14.6773 37.9955 14.08C37.9102 13.4613 37.8568 12.96 37.8355 12.576C37.8142 12.192 37.8675 11.7973 37.9955 11.392C38.1448 11.072 38.3582 10.8267 38.6355 10.656ZM46.1425 12.928C45.7585 13.0987 45.3745 13.248 44.9905 13.376C44.6278 13.4827 44.2332 13.5573 43.8065 13.6C43.4012 13.6427 43.0492 13.5787 42.7505 13.408C42.4518 13.216 42.2598 12.9067 42.1745 12.48C42.1318 12.224 42.3132 11.968 42.7185 11.712C43.1238 11.456 43.5825 11.2533 44.0945 11.104C44.6278 10.9333 45.0545 10.8693 45.3745 10.912C45.6305 10.9333 45.9185 10.848 46.2385 10.656C46.5798 10.464 46.8785 10.3787 47.1345 10.4C47.7105 10.5707 48.1158 10.688 48.3505 10.752C48.6065 10.7947 48.9372 10.848 49.3425 10.912C49.7692 10.9547 50.2705 10.976 50.8465 10.976C51.5078 10.976 51.9772 11.0827 52.2545 11.296C52.5318 11.488 52.7665 11.872 52.9585 12.448C52.8092 12.4693 51.9558 12.4907 50.3985 12.512C48.9052 12.5547 48.1585 13.0347 48.1585 13.952C48.1798 14.6987 48.1372 16.256 48.0305 18.624C47.9452 20.992 47.9025 22.2187 47.9025 22.304C47.9025 22.7307 48.0092 23.072 48.2225 23.328C48.4358 23.5627 48.7452 23.712 49.1505 23.776C49.5772 23.8187 49.9825 23.8293 50.3665 23.808C50.7505 23.7867 51.2092 23.744 51.7425 23.68C52.2972 23.5947 52.7025 23.552 52.9585 23.552C52.6598 23.936 52.2438 24.256 51.7105 24.512C51.1772 24.7467 50.6652 24.9173 50.1745 25.024C49.7052 25.1307 49.0652 25.2587 48.2545 25.408C47.4438 25.5573 46.8252 25.6853 46.3985 25.792C44.7558 26.1973 43.5185 26.4853 42.6865 26.656C42.4092 26.6987 42.1958 26.6027 42.0465 26.368C41.8972 26.1333 41.8118 25.856 41.7905 25.536C41.7905 25.216 41.9825 24.992 42.3665 24.864C42.7505 24.736 43.2518 24.672 43.8705 24.672C44.5105 24.6507 44.9265 24.6187 45.1185 24.576C45.8438 24.384 46.2065 23.6587 46.2065 22.4C46.2065 22.3573 46.2065 22.2933 46.2065 22.208C46.2065 22.1227 46.2065 22.0267 46.2065 21.92C46.2065 21.8133 46.1958 21.7067 46.1745 21.6C46.1745 21.4933 46.1638 21.3867 46.1425 21.28C46.1425 21.152 46.1425 21.0453 46.1425 20.96C46.1425 20.8533 46.1318 20.7573 46.1105 20.672C46.1105 20.5867 46.1105 20.512 46.1105 20.448C46.1105 20.3627 46.1105 20.3093 46.1105 20.288V20.224C46.1105 20.0533 46.2065 19.136 46.3985 17.472C46.5905 15.7867 46.6118 14.6453 46.4625 14.048C46.3132 13.472 46.2065 13.0987 46.1425 12.928Z" fill="white"/>
<path d="M63.8808 22.368C63.4541 22.432 62.8141 22.624 61.9608 22.944C61.1074 23.2427 60.3821 23.4773 59.7848 23.648C59.2088 23.8187 58.5474 23.8613 57.8008 23.776C57.0754 23.6693 56.4461 23.3493 55.9128 22.816C55.3794 22.2827 55.0594 21.632 54.9528 20.864C54.8461 20.0747 54.9208 19.296 55.1768 18.528C55.4328 17.7387 55.7314 17.0347 56.0728 16.416C56.4141 15.7973 56.7768 15.232 57.1608 14.72C58.0994 13.4827 59.3154 12.608 60.8088 12.096C62.3234 11.5627 64.0088 11.5093 65.8648 11.936C66.7608 12.1493 67.5074 12.64 68.1048 13.408C68.7021 14.1547 69.0008 15.0507 69.0008 16.096C69.0008 16.9067 68.7874 17.7173 68.3608 18.528C67.9341 19.3173 67.4221 19.968 66.8248 20.48C66.6328 20.6293 66.5368 20.7893 66.5368 20.96C66.6434 21.344 66.8354 21.7387 67.1128 22.144C67.3901 22.5493 67.6461 22.9013 67.8808 23.2C68.1368 23.4773 68.3501 23.8293 68.5208 24.256C68.7128 24.6613 68.8088 25.0987 68.8088 25.568C68.1048 25.568 67.4221 25.2373 66.7608 24.576C65.3314 23.104 64.3714 22.368 63.8808 22.368ZM61.6408 18.784C61.6408 18.5067 61.7581 18.3253 61.9928 18.24C62.2274 18.1333 62.4728 18.1333 62.7288 18.24C62.9208 18.2187 63.1341 18.368 63.3688 18.688C63.6248 19.008 63.8808 19.3173 64.1368 19.616C64.4141 19.9147 64.6488 20.0533 64.8408 20.032C65.4381 19.8827 65.9821 19.5627 66.4728 19.072C66.9634 18.56 67.3048 18.0053 67.4968 17.408C67.6888 16.7893 67.7101 16.1387 67.5608 15.456C67.4114 14.7733 67.0488 14.208 66.4728 13.76C65.7901 13.184 64.9581 12.8533 63.9768 12.768C62.9954 12.6827 62.0674 12.8533 61.1927 13.28C60.5954 13.6 59.8274 14.2507 58.8888 15.232C57.9501 16.192 57.2781 17.0453 56.8728 17.792C56.3821 18.7093 56.1474 19.4773 56.1688 20.096C56.1901 20.8 56.4354 21.376 56.9048 21.824C57.3741 22.2507 57.9928 22.4853 58.7608 22.528C59.4434 22.5707 60.7661 22.1547 62.7288 21.28C62.0461 20.128 61.6834 19.296 61.6408 18.784ZM81.387 15.456C81.387 18.1227 81.3443 19.8507 81.259 20.64C81.0243 22.9867 80.2777 24.48 79.019 25.12C78.4643 25.3973 77.8137 25.5467 77.067 25.568C76.3203 25.5893 75.6697 25.5787 75.115 25.536C74.5603 25.472 74.027 25.3547 73.515 25.184C73.0243 25.0133 72.6403 24.768 72.363 24.448C72.107 24.1067 71.979 23.68 71.979 23.168C71.979 22.9973 71.979 22.7413 71.979 22.4C71.979 20.9493 71.9683 19.8293 71.947 19.04C71.9257 18.2507 71.8297 17.312 71.659 16.224C71.4883 15.1147 71.2323 14.2293 70.891 13.568C70.6777 13.2053 70.603 12.8853 70.667 12.608C70.7523 12.3093 71.0297 12.16 71.499 12.16C71.9257 12.1813 72.3203 12.5227 72.683 13.184C73.067 13.824 73.3443 14.5493 73.515 15.36C73.6857 16.1493 73.771 16.8533 73.771 17.472C73.7497 17.7493 73.7283 18.112 73.707 18.56C73.6857 19.008 73.6643 19.36 73.643 19.616C73.643 19.872 73.643 20.192 73.643 20.576C73.643 20.9387 73.6643 21.2373 73.707 21.472C73.7497 21.7067 73.803 21.9627 73.867 22.24C73.931 22.5173 74.027 22.7413 74.155 22.912C74.3043 23.0613 74.475 23.2213 74.667 23.392C74.859 23.5413 75.0937 23.648 75.371 23.712C75.6483 23.776 75.9683 23.808 76.331 23.808C77.1417 23.808 77.8137 23.4773 78.347 22.816C78.9017 22.1547 79.2963 21.3653 79.531 20.448C79.7657 19.5093 79.8617 18.5173 79.819 17.472C79.819 17.0453 79.755 16.4053 79.627 15.552C79.5203 14.6773 79.4883 13.984 79.531 13.472C79.595 12.96 79.787 12.5227 80.107 12.16C80.5763 12.5653 80.907 13.0133 81.099 13.504C81.291 13.9733 81.387 14.624 81.387 15.456ZM88.738 24.8C87.586 25.2267 86.5833 25.3013 85.73 25.024C84.8767 24.7253 84.2047 24.1493 83.714 23.296C83.2447 22.4213 83.042 21.408 83.106 20.256C83.1487 18.9547 83.2553 17.9627 83.426 17.28C83.618 16.576 84.002 15.7867 84.578 14.912C84.8767 14.464 85.0687 14.176 85.154 14.048C85.2607 13.8987 85.442 13.6853 85.698 13.408C85.954 13.1093 86.1673 12.9067 86.338 12.8C86.5087 12.6933 86.7327 12.5867 87.01 12.48C87.3087 12.3733 87.6393 12.2987 88.002 12.256C88.3007 12.2347 88.674 12.32 89.122 12.512C89.57 12.6827 90.0713 12.8533 90.626 13.024C91.202 13.1733 91.7673 13.2053 92.322 13.12C93.4527 12.9493 94.2847 13.088 94.818 13.536C95.3513 13.9627 95.586 14.72 95.522 15.808C95.4367 17.8987 94.7433 19.7227 93.442 21.28C92.162 22.8373 90.594 24.0107 88.738 24.8ZM93.442 14.24C92.9513 14.2613 92.386 14.4427 91.746 14.784C91.1273 15.1253 90.466 15.5413 89.762 16.032C89.0793 16.5013 88.546 16.8213 88.162 16.992C88.1407 16.7147 88.2473 16.384 88.482 16C88.7167 15.616 88.962 15.2533 89.218 14.912C89.4953 14.5707 89.6447 14.336 89.666 14.208C89.0473 13.9733 88.4607 13.9307 87.906 14.08C87.3727 14.2293 86.8713 14.528 86.402 14.976C85.9327 15.424 85.5273 15.936 85.186 16.512C84.8447 17.088 84.578 17.6853 84.386 18.304C84.194 18.9227 84.098 19.4987 84.098 20.032C84.098 20.5867 84.1727 21.1413 84.322 21.696C84.4927 22.2293 84.7273 22.7093 85.026 23.136C85.3247 23.5413 85.698 23.8293 86.146 24C86.6153 24.1493 87.1593 24.128 87.778 23.936C89.4633 23.3813 90.978 22.4 92.322 20.992C93.6873 19.584 94.402 17.9947 94.466 16.224C94.466 15.7973 94.4553 15.456 94.434 15.2C94.4127 14.944 94.3167 14.72 94.146 14.528C93.9967 14.336 93.762 14.24 93.442 14.24ZM103.01 11.648C103.65 11.968 104.141 12.16 104.483 12.224C104.845 12.2667 105.475 12.2347 106.371 12.128C106.968 12.0427 107.427 12 107.747 12C108.067 12 108.387 12.0853 108.707 12.256C108.963 12.384 109.091 12.6933 109.091 13.184C108.472 13.184 107.373 13.3547 105.795 13.696C105.496 13.76 105.251 13.8987 105.059 14.112C104.888 14.3253 104.781 14.6133 104.739 14.976C104.717 15.3387 104.707 15.68 104.707 16C104.707 16.32 104.728 16.7147 104.771 17.184C104.813 17.632 104.835 17.9733 104.835 18.208C104.835 18.8267 104.792 19.6907 104.707 20.8C104.621 21.9093 104.579 22.7627 104.579 23.36C104.579 24.3413 104.504 24.96 104.355 25.216C104.227 25.5147 103.981 25.6747 103.619 25.696C103.256 25.7173 102.968 25.5147 102.755 25.088C102.541 24.6613 102.456 24.2347 102.499 23.808C102.52 23.5947 102.605 22.9653 102.755 21.92C102.904 20.8747 103.011 20.0107 103.075 19.328C103.139 18.624 103.171 17.9093 103.171 17.184C103.171 16.7573 103.16 16.4053 103.139 16.128C103.117 15.8293 103.053 15.52 102.947 15.2C102.861 14.88 102.744 14.624 102.595 14.432C102.445 14.24 102.232 14.08 101.955 13.952C101.699 13.824 101.389 13.76 101.027 13.76C100.749 13.76 100.248 13.824 99.5225 13.952C98.8185 14.0587 98.1892 14.112 97.6345 14.112C97.1012 14.0907 96.6852 13.9627 96.3865 13.728C96.0025 13.408 95.7678 12.8853 95.6825 12.16C96.5358 11.968 97.3678 11.9253 98.1785 12.032C98.9892 12.1173 99.8745 12.16 100.835 12.16C101.795 12.1387 102.52 11.968 103.01 11.648ZM113.945 24.576C113.476 24.7253 113.039 24.7147 112.633 24.544C112.249 24.3733 112.025 24.128 111.961 23.808C111.897 23.488 112.015 23.1573 112.313 22.816C112.569 22.5387 112.943 22.368 113.433 22.304C113.689 22.2613 114.564 22.1333 116.057 21.92C117.551 21.6853 118.703 21.472 119.513 21.28C119.855 21.1947 120.345 21.024 120.985 20.768C121.625 20.4907 122.137 20.3413 122.521 20.32C122.863 20.2773 123.161 20.3947 123.417 20.672C123.673 20.928 123.812 21.2053 123.833 21.504C123.833 21.6747 123.759 21.8347 123.609 21.984C123.46 22.112 123.236 22.208 122.937 22.272C119.951 22.8267 116.953 23.5947 113.945 24.576ZM122.809 16.704C123.172 16.6827 123.492 16.7573 123.769 16.928C124.047 17.0987 124.185 17.3227 124.185 17.6C124.185 18.0693 123.823 18.368 123.097 18.496C122.884 18.5173 122.543 18.5707 122.073 18.656C121.604 18.72 121.305 18.7627 121.177 18.784C121.049 18.8053 120.815 18.848 120.473 18.912C120.153 18.976 119.876 19.0507 119.641 19.136C119.407 19.2 119.097 19.2853 118.713 19.392C118.329 19.4987 117.903 19.6267 117.433 19.776C116.196 20.16 115.364 20.4907 114.937 20.768C114.02 21.3653 113.561 22.2293 113.561 23.36C113.561 24.4053 113.497 25.1413 113.369 25.568C112.687 25.4613 112.26 25.056 112.089 24.352C111.876 23.456 111.631 22.848 111.353 22.528C111.311 22.4853 111.225 22.4107 111.097 22.304C110.991 22.1973 110.927 22.1333 110.905 22.112C110.884 22.0907 110.831 22.0373 110.745 21.952C110.681 21.8667 110.649 21.8133 110.649 21.792C110.649 21.7493 110.628 21.696 110.585 21.632C110.543 21.568 110.532 21.5253 110.553 21.504C110.575 21.4613 110.585 21.408 110.585 21.344C110.607 21.28 110.628 21.2267 110.649 21.184C110.692 21.12 110.735 21.056 110.777 20.992C110.841 20.9067 110.916 20.8213 111.001 20.736C111.044 20.672 111.119 20.5867 111.225 20.48C111.332 20.3733 111.396 20.3093 111.417 20.288C111.439 20.2453 111.481 20.192 111.545 20.128C111.609 20.0427 111.641 19.968 111.641 19.904C111.663 19.84 111.695 19.7547 111.737 19.648C111.78 19.5413 111.823 19.4133 111.865 19.264C112.1 18.2613 111.887 17.7493 111.225 17.728C110.799 17.7067 110.489 17.504 110.297 17.12C110.105 16.736 110.18 16.416 110.521 16.16C110.82 15.9467 111.055 15.7547 111.225 15.584C111.396 15.4133 111.556 15.168 111.705 14.848C111.876 14.528 111.972 14.1653 111.993 13.76C112.057 12.8213 112.345 12.2133 112.857 11.936C112.9 11.9787 112.953 12.032 113.017 12.096C113.103 12.1387 113.156 12.1813 113.177 12.224C113.22 12.2667 113.273 12.32 113.337 12.384C113.401 12.4267 113.444 12.48 113.465 12.544C113.508 12.608 113.551 12.6933 113.593 12.8C113.636 12.9067 113.679 13.024 113.721 13.152L114.137 14.432C114.393 14.3467 114.745 14.208 115.193 14.016C115.663 13.8027 116.068 13.6107 116.409 13.44C116.772 13.2693 117.199 13.0987 117.689 12.928C118.201 12.736 118.639 12.5973 119.001 12.512C119.385 12.4267 119.812 12.3733 120.281 12.352C120.772 12.3307 121.188 12.3947 121.529 12.544C121.785 12.6293 122.009 12.8427 122.201 13.184C121.497 13.632 120.26 14.1547 118.489 14.752C116.74 15.328 115.556 15.7653 114.937 16.064C113.743 16.64 113.305 17.6213 113.625 19.008C114.607 18.88 116.111 18.4853 118.137 17.824C120.164 17.1627 121.721 16.7893 122.809 16.704Z" fill="#1E1E1E"/>
<g filter="url(#filter0_d_244_169)">
<rect x="9" y="30" width="115" height="10" rx="5" fill="#373737"/>
</g>
<path d="M12.7727 38V32.1818H16.1392V32.6591H13.304V34.8494H15.875V35.3267H13.304V38H12.7727ZM18.5739 38.0994C18.3106 38.0994 18.0701 38.0483 17.8523 37.946C17.6345 37.8419 17.4612 37.6922 17.3324 37.4972C17.2036 37.3002 17.1392 37.0616 17.1392 36.7812C17.1392 36.5653 17.1799 36.3835 17.2614 36.2358C17.3428 36.0881 17.4583 35.9669 17.608 35.8722C17.7576 35.7775 17.9347 35.7027 18.1392 35.6477C18.3438 35.5928 18.5691 35.5502 18.8153 35.5199C19.0597 35.4896 19.2661 35.4631 19.4347 35.4403C19.6051 35.4176 19.7348 35.3816 19.8239 35.3324C19.9129 35.2831 19.9574 35.2036 19.9574 35.0938V34.9915C19.9574 34.6941 19.8684 34.4602 19.6903 34.2898C19.5142 34.1174 19.2604 34.0312 18.929 34.0312C18.6146 34.0312 18.358 34.1004 18.1591 34.2386C17.9621 34.3769 17.8239 34.5398 17.7443 34.7273L17.2642 34.554C17.3627 34.3153 17.4991 34.125 17.6733 33.983C17.8475 33.839 18.0426 33.7358 18.2585 33.6733C18.4744 33.6089 18.6932 33.5767 18.9148 33.5767C19.0814 33.5767 19.2547 33.5985 19.4347 33.642C19.6165 33.6856 19.785 33.7614 19.9403 33.8693C20.0956 33.9754 20.2216 34.1241 20.3182 34.3153C20.4148 34.5047 20.4631 34.7453 20.4631 35.0369V38H19.9574V37.3097H19.9261C19.8655 37.4384 19.7756 37.5634 19.6562 37.6847C19.5369 37.8059 19.3873 37.9053 19.2074 37.983C19.0275 38.0606 18.8163 38.0994 18.5739 38.0994ZM18.642 37.6364C18.911 37.6364 19.1439 37.5767 19.3409 37.4574C19.5379 37.3381 19.6894 37.1799 19.7955 36.983C19.9034 36.7841 19.9574 36.5653 19.9574 36.3267V35.696C19.9195 35.732 19.8561 35.7642 19.767 35.7926C19.6799 35.821 19.5786 35.8466 19.4631 35.8693C19.3494 35.8902 19.2358 35.9081 19.1222 35.9233C19.0085 35.9384 18.9062 35.9517 18.8153 35.9631C18.5691 35.9934 18.3589 36.0407 18.1847 36.1051C18.0104 36.1695 17.8769 36.2585 17.7841 36.3722C17.6913 36.4839 17.6449 36.6278 17.6449 36.804C17.6449 37.0691 17.7396 37.2746 17.929 37.4205C18.1184 37.5644 18.3561 37.6364 18.642 37.6364ZM22.3139 35.2727V38H21.8082V33.6364H22.2997V34.321H22.3452C22.4474 34.0975 22.6065 33.9186 22.8224 33.7841C23.0402 33.6477 23.3092 33.5795 23.6293 33.5795C23.9228 33.5795 24.1804 33.6411 24.402 33.7642C24.6255 33.8854 24.7988 34.0644 24.9219 34.3011C25.0469 34.5379 25.1094 34.8286 25.1094 35.1733V38H24.6037V35.2045C24.6037 34.8466 24.5033 34.5634 24.3026 34.3551C24.1037 34.1468 23.8366 34.0426 23.5014 34.0426C23.2723 34.0426 23.0687 34.0919 22.8906 34.1903C22.7126 34.2888 22.5715 34.4309 22.4673 34.6165C22.3651 34.8002 22.3139 35.0189 22.3139 35.2727ZM28.6911 39.6364V33.6364H29.1825V34.4688H29.2422C29.3028 34.3381 29.3861 34.2045 29.4922 34.0682C29.5982 33.9299 29.7384 33.8134 29.9126 33.7188C30.0888 33.6241 30.3104 33.5767 30.5774 33.5767C30.9373 33.5767 31.2517 33.6714 31.5206 33.8608C31.7914 34.0483 32.0017 34.3116 32.1513 34.6506C32.3028 34.9877 32.3786 35.3807 32.3786 35.8295C32.3786 36.2803 32.3028 36.6752 32.1513 37.0142C32.0017 37.3532 31.7914 37.6174 31.5206 37.8068C31.2517 37.9962 30.9392 38.0909 30.5831 38.0909C30.3198 38.0909 30.0992 38.0436 29.9212 37.9489C29.745 37.8542 29.602 37.7377 29.4922 37.5994C29.3842 37.4593 29.3009 37.3229 29.2422 37.1903H29.1967V39.6364H28.6911ZM29.1911 35.821C29.1911 36.1733 29.2431 36.4858 29.3473 36.7585C29.4534 37.0294 29.6049 37.2424 29.8018 37.3977C30.0007 37.5511 30.2412 37.6278 30.5234 37.6278C30.8132 37.6278 31.0575 37.5483 31.2564 37.3892C31.4571 37.2282 31.6096 37.0114 31.7138 36.7386C31.8198 36.4659 31.8729 36.16 31.8729 35.821C31.8729 35.4858 31.8208 35.1837 31.7166 34.9148C31.6143 34.6458 31.4628 34.4328 31.2621 34.2756C31.0613 34.1165 30.8151 34.0369 30.5234 34.0369C30.2393 34.0369 29.9979 34.1136 29.799 34.267C29.6001 34.4186 29.4486 34.6288 29.3445 34.8977C29.2422 35.1648 29.1911 35.4725 29.1911 35.821ZM33.4879 38V33.6364H33.9794V34.3068H34.0163C34.1035 34.0871 34.255 33.91 34.4709 33.7756C34.6887 33.6392 34.9349 33.571 35.2095 33.571C35.2512 33.571 35.2976 33.572 35.3487 33.5739C35.3999 33.5758 35.4425 33.5777 35.4766 33.5795V34.0938C35.4538 34.09 35.4141 34.0843 35.3572 34.0767C35.3004 34.0691 35.2389 34.0653 35.1726 34.0653C34.9453 34.0653 34.7427 34.1136 34.5646 34.2102C34.3885 34.3049 34.2493 34.4366 34.147 34.6051C34.0447 34.7737 33.9936 34.9659 33.9936 35.1818V38H33.4879ZM37.9027 38.0909C37.5258 38.0909 37.1925 37.9953 36.9027 37.804C36.6148 37.6127 36.3894 37.3485 36.2266 37.0114C36.0637 36.6723 35.9822 36.2812 35.9822 35.8381C35.9822 35.3911 36.0637 34.9981 36.2266 34.6591C36.3894 34.3182 36.6148 34.053 36.9027 33.8636C37.1925 33.6723 37.5258 33.5767 37.9027 33.5767C38.2796 33.5767 38.612 33.6723 38.8999 33.8636C39.1877 34.0549 39.4131 34.3201 39.576 34.6591C39.7408 34.9981 39.8232 35.3911 39.8232 35.8381C39.8232 36.2812 39.7417 36.6723 39.5788 37.0114C39.416 37.3485 39.1896 37.6127 38.8999 37.804C38.612 37.9953 38.2796 38.0909 37.9027 38.0909ZM37.9027 37.6278C38.2057 37.6278 38.4624 37.5464 38.6726 37.3835C38.8828 37.2206 39.0419 37.0038 39.1499 36.733C39.2597 36.4621 39.3146 36.1638 39.3146 35.8381C39.3146 35.5123 39.2597 35.2131 39.1499 34.9403C39.0419 34.6676 38.8828 34.4489 38.6726 34.2841C38.4624 34.1193 38.2057 34.0369 37.9027 34.0369C37.6016 34.0369 37.3449 34.1193 37.1328 34.2841C36.9226 34.4489 36.7625 34.6676 36.6527 34.9403C36.5447 35.2131 36.4908 35.5123 36.4908 35.8381C36.4908 36.1638 36.5447 36.4621 36.6527 36.733C36.7625 37.0038 36.9226 37.2206 37.1328 37.3835C37.343 37.5464 37.5997 37.6278 37.9027 37.6278ZM40.9389 33.6364H41.4474V38.4233C41.4474 38.6714 41.401 38.8854 41.3082 39.0653C41.2173 39.2472 41.0848 39.3873 40.9105 39.4858C40.7363 39.5862 40.526 39.6364 40.2798 39.6364C40.2609 39.6364 40.242 39.6364 40.223 39.6364C40.2041 39.6364 40.1832 39.6354 40.1605 39.6335L40.1662 39.1591C40.1851 39.1591 40.2031 39.1591 40.2202 39.1591C40.2372 39.1591 40.2552 39.1591 40.2741 39.1591C40.4825 39.1591 40.6454 39.0947 40.7628 38.9659C40.8802 38.8371 40.9389 38.6563 40.9389 38.4233V33.6364ZM41.1889 32.8864C41.0866 32.8864 40.9976 32.8513 40.9219 32.7812C40.848 32.7093 40.8111 32.6231 40.8111 32.5227C40.8111 32.4223 40.848 32.3371 40.9219 32.267C40.9976 32.1951 41.0866 32.1591 41.1889 32.1591C41.2931 32.1591 41.3821 32.1951 41.456 32.267C41.5317 32.3371 41.5696 32.4223 41.5696 32.5227C41.5696 32.6231 41.5317 32.7093 41.456 32.7812C41.3821 32.8513 41.2931 32.8864 41.1889 32.8864ZM44.549 38.0909C44.1418 38.0909 43.7895 37.9962 43.4922 37.8068C43.1948 37.6155 42.9647 37.3513 42.8018 37.0142C42.6409 36.6752 42.5604 36.285 42.5604 35.8438C42.5604 35.4044 42.6409 35.0142 42.8018 34.6733C42.9647 34.3305 43.1892 34.0625 43.4751 33.8693C43.763 33.6742 44.0954 33.5767 44.4723 33.5767C44.709 33.5767 44.9373 33.6203 45.157 33.7074C45.3767 33.7926 45.5736 33.9242 45.7479 34.1023C45.924 34.2784 46.0632 34.5009 46.1655 34.7699C46.2678 35.0369 46.3189 35.3532 46.3189 35.7188V35.9688H42.9098V35.5227H45.8018C45.8018 35.2424 45.745 34.9905 45.6314 34.767C45.5196 34.5417 45.3634 34.3636 45.1626 34.233C44.9638 34.1023 44.7337 34.0369 44.4723 34.0369C44.1958 34.0369 43.9524 34.1108 43.7422 34.2585C43.532 34.4062 43.3672 34.6013 43.2479 34.8438C43.1304 35.0862 43.0708 35.3513 43.0689 35.6392V35.9062C43.0689 36.2528 43.1286 36.5559 43.2479 36.8153C43.3691 37.0729 43.5405 37.2727 43.7621 37.4148C43.9837 37.5568 44.246 37.6278 44.549 37.6278C44.7554 37.6278 44.9363 37.5956 45.0916 37.5312C45.2488 37.4669 45.3804 37.3807 45.4865 37.2727C45.5945 37.1629 45.6759 37.0426 45.7308 36.9119L46.2109 37.0682C46.1446 37.2519 46.0357 37.4214 45.8842 37.5767C45.7346 37.732 45.5471 37.857 45.3217 37.9517C45.0982 38.0445 44.8407 38.0909 44.549 38.0909ZM49.1378 38.0909C48.7476 38.0909 48.4077 37.9934 48.1179 37.7983C47.83 37.6032 47.6065 37.3362 47.4474 36.9972C47.2884 36.6581 47.2088 36.2718 47.2088 35.8381C47.2088 35.4006 47.2893 35.0114 47.4503 34.6705C47.6132 34.3295 47.8385 34.0625 48.1264 33.8693C48.4143 33.6742 48.7486 33.5767 49.1293 33.5767C49.4209 33.5767 49.6851 33.6335 49.9219 33.7472C50.1586 33.8589 50.3537 34.017 50.5071 34.2216C50.6624 34.4242 50.7599 34.661 50.7997 34.9318H50.2884C50.2353 34.6856 50.1075 34.4754 49.9048 34.3011C49.7041 34.125 49.4484 34.0369 49.1378 34.0369C48.8594 34.0369 48.6132 34.1127 48.3991 34.2642C48.1851 34.4138 48.0175 34.6231 47.8963 34.892C47.777 35.1591 47.7173 35.4687 47.7173 35.821C47.7173 36.1752 47.776 36.4886 47.8935 36.7614C48.0109 37.0322 48.1757 37.2443 48.3878 37.3977C48.6018 37.5511 48.8518 37.6278 49.1378 37.6278C49.331 37.6278 49.5071 37.5919 49.6662 37.5199C49.8272 37.446 49.9616 37.3419 50.0696 37.2074C50.1795 37.0729 50.2533 36.9129 50.2912 36.7273H50.8026C50.7647 36.9905 50.6709 37.2254 50.5213 37.4318C50.3736 37.6364 50.1813 37.7973 49.9446 37.9148C49.7098 38.0322 49.4408 38.0909 49.1378 38.0909ZM53.6051 33.6364V34.0767H51.5227V33.6364H53.6051ZM52.1733 32.5909H52.6818V36.8608C52.6818 37.0426 52.7131 37.1856 52.7756 37.2898C52.8381 37.392 52.9195 37.465 53.0199 37.5085C53.1203 37.5502 53.2273 37.571 53.3409 37.571C53.4072 37.571 53.464 37.5672 53.5114 37.5597C53.5587 37.5502 53.6004 37.5407 53.6364 37.5312L53.7443 37.9886C53.6951 38.0076 53.6345 38.0246 53.5625 38.0398C53.4905 38.0568 53.4015 38.0653 53.2955 38.0653C53.1098 38.0653 52.9309 38.0246 52.7585 37.9432C52.5881 37.8617 52.4479 37.7405 52.3381 37.5795C52.2282 37.4186 52.1733 37.2188 52.1733 36.9801V32.5909ZM58.799 33.6364V34.0767H56.6541V33.6364H58.799ZM57.3246 38V32.9972C57.3246 32.7623 57.3786 32.5644 57.4865 32.4034C57.5964 32.2424 57.7393 32.1203 57.9155 32.0369C58.0916 31.9536 58.2782 31.9119 58.4751 31.9119C58.6077 31.9119 58.7176 31.9233 58.8047 31.946C58.8937 31.9669 58.9638 31.9877 59.0149 32.0085L58.8672 32.4517C58.8293 32.4403 58.7829 32.4271 58.728 32.4119C58.6731 32.3968 58.6039 32.3892 58.5206 32.3892C58.3009 32.3892 58.1314 32.4508 58.0121 32.5739C57.8928 32.697 57.8331 32.8731 57.8331 33.1023L57.8303 38H57.3246ZM61.3246 38.0909C60.9477 38.0909 60.6143 37.9953 60.3246 37.804C60.0367 37.6127 59.8113 37.3485 59.6484 37.0114C59.4856 36.6723 59.4041 36.2812 59.4041 35.8381C59.4041 35.3911 59.4856 34.9981 59.6484 34.6591C59.8113 34.3182 60.0367 34.053 60.3246 33.8636C60.6143 33.6723 60.9477 33.5767 61.3246 33.5767C61.7015 33.5767 62.0339 33.6723 62.3217 33.8636C62.6096 34.0549 62.835 34.3201 62.9979 34.6591C63.1626 34.9981 63.245 35.3911 63.245 35.8381C63.245 36.2812 63.1636 36.6723 63.0007 37.0114C62.8378 37.3485 62.6115 37.6127 62.3217 37.804C62.0339 37.9953 61.7015 38.0909 61.3246 38.0909ZM61.3246 37.6278C61.6276 37.6278 61.8842 37.5464 62.0945 37.3835C62.3047 37.2206 62.4638 37.0038 62.5717 36.733C62.6816 36.4621 62.7365 36.1638 62.7365 35.8381C62.7365 35.5123 62.6816 35.2131 62.5717 34.9403C62.4638 34.6676 62.3047 34.4489 62.0945 34.2841C61.8842 34.1193 61.6276 34.0369 61.3246 34.0369C61.0234 34.0369 60.7668 34.1193 60.5547 34.2841C60.3445 34.4489 60.1844 34.6676 60.0746 34.9403C59.9666 35.2131 59.9126 35.5123 59.9126 35.8381C59.9126 36.1638 59.9666 36.4621 60.0746 36.733C60.1844 37.0038 60.3445 37.2206 60.5547 37.3835C60.7649 37.5464 61.0215 37.6278 61.3246 37.6278ZM64.3551 38V33.6364H64.8466V34.3068H64.8835C64.9706 34.0871 65.1222 33.91 65.3381 33.7756C65.5559 33.6392 65.8021 33.571 66.0767 33.571C66.1184 33.571 66.1648 33.572 66.2159 33.5739C66.267 33.5758 66.3097 33.5777 66.3438 33.5795V34.0938C66.321 34.09 66.2813 34.0843 66.2244 34.0767C66.1676 34.0691 66.1061 34.0653 66.0398 34.0653C65.8125 34.0653 65.6098 34.1136 65.4318 34.2102C65.2557 34.3049 65.1165 34.4366 65.0142 34.6051C64.9119 34.7737 64.8608 34.9659 64.8608 35.1818V38H64.3551ZM97.1172 39.6364V37.1903H97.0717C97.013 37.3229 96.9297 37.4593 96.8217 37.5994C96.7138 37.7377 96.5708 37.8542 96.3928 37.9489C96.2147 38.0436 95.9941 38.0909 95.7308 38.0909C95.3748 38.0909 95.0613 37.9962 94.7905 37.8068C94.5215 37.6174 94.3113 37.3532 94.1598 37.0142C94.0102 36.6752 93.9354 36.2803 93.9354 35.8295C93.9354 35.3807 94.0102 34.9877 94.1598 34.6506C94.3113 34.3116 94.5225 34.0483 94.7933 33.8608C95.0642 33.6714 95.3795 33.5767 95.7393 33.5767C96.0064 33.5767 96.227 33.6241 96.4013 33.7188C96.5774 33.8134 96.7185 33.9299 96.8246 34.0682C96.9306 34.2045 97.013 34.3381 97.0717 34.4688H97.1314V33.6364H97.6257V39.6364H97.1172ZM95.7905 37.6278C96.0727 37.6278 96.3132 37.5511 96.5121 37.3977C96.7109 37.2424 96.8625 37.0294 96.9666 36.7585C97.0727 36.4858 97.1257 36.1733 97.1257 35.821C97.1257 35.4725 97.0736 35.1648 96.9695 34.8977C96.8653 34.6288 96.7138 34.4186 96.5149 34.267C96.3179 34.1136 96.0765 34.0369 95.7905 34.0369C95.4988 34.0369 95.2526 34.1165 95.0518 34.2756C94.8511 34.4328 94.6996 34.6458 94.5973 34.9148C94.495 35.1837 94.4439 35.4858 94.4439 35.821C94.4439 36.16 94.496 36.4659 94.6001 36.7386C94.7043 37.0114 94.8568 37.2282 95.0575 37.3892C95.2583 37.5483 95.5026 37.6278 95.7905 37.6278ZM101.729 36.3324V33.6364H102.235V38H101.729V37.2756H101.69C101.587 37.4991 101.425 37.6856 101.204 37.8352C100.982 37.983 100.711 38.0568 100.391 38.0568C100.113 38.0568 99.8658 37.9962 99.6499 37.875C99.4339 37.7519 99.2644 37.572 99.1413 37.3352C99.0182 37.0985 98.9567 36.8078 98.9567 36.4631V33.6364H99.4624V36.4318C99.4624 36.7727 99.5627 37.0473 99.7635 37.2557C99.9643 37.4621 100.222 37.5653 100.536 37.5653C100.733 37.5653 100.923 37.518 101.104 37.4233C101.286 37.3286 101.436 37.1903 101.553 37.0085C101.671 36.8248 101.729 36.5994 101.729 36.3324ZM105.27 38.0909C104.893 38.0909 104.56 37.9953 104.27 37.804C103.982 37.6127 103.757 37.3485 103.594 37.0114C103.431 36.6723 103.349 36.2812 103.349 35.8381C103.349 35.3911 103.431 34.9981 103.594 34.6591C103.757 34.3182 103.982 34.053 104.27 33.8636C104.56 33.6723 104.893 33.5767 105.27 33.5767C105.647 33.5767 105.979 33.6723 106.267 33.8636C106.555 34.0549 106.78 34.3201 106.943 34.6591C107.108 34.9981 107.19 35.3911 107.19 35.8381C107.19 36.2812 107.109 36.6723 106.946 37.0114C106.783 37.3485 106.557 37.6127 106.267 37.804C105.979 37.9953 105.647 38.0909 105.27 38.0909ZM105.27 37.6278C105.573 37.6278 105.83 37.5464 106.04 37.3835C106.25 37.2206 106.409 37.0038 106.517 36.733C106.627 36.4621 106.682 36.1638 106.682 35.8381C106.682 35.5123 106.627 35.2131 106.517 34.9403C106.409 34.6676 106.25 34.4489 106.04 34.2841C105.83 34.1193 105.573 34.0369 105.27 34.0369C104.969 34.0369 104.712 34.1193 104.5 34.2841C104.29 34.4489 104.13 34.6676 104.02 34.9403C103.912 35.2131 103.858 35.5123 103.858 35.8381C103.858 36.1638 103.912 36.4621 104.02 36.733C104.13 37.0038 104.29 37.2206 104.5 37.3835C104.71 37.5464 104.967 37.6278 105.27 37.6278ZM110.019 33.6364V34.0767H107.937V33.6364H110.019ZM108.587 32.5909H109.096V36.8608C109.096 37.0426 109.127 37.1856 109.19 37.2898C109.252 37.392 109.334 37.465 109.434 37.5085C109.534 37.5502 109.641 37.571 109.755 37.571C109.821 37.571 109.878 37.5672 109.925 37.5597C109.973 37.5502 110.014 37.5407 110.05 37.5312L110.158 37.9886C110.109 38.0076 110.049 38.0246 109.977 38.0398C109.905 38.0568 109.816 38.0653 109.71 38.0653C109.524 38.0653 109.345 38.0246 109.173 37.9432C109.002 37.8617 108.862 37.7405 108.752 37.5795C108.642 37.4186 108.587 37.2188 108.587 36.9801V32.5909ZM112.885 38.0909C112.478 38.0909 112.125 37.9962 111.828 37.8068C111.531 37.6155 111.301 37.3513 111.138 37.0142C110.977 36.6752 110.896 36.285 110.896 35.8438C110.896 35.4044 110.977 35.0142 111.138 34.6733C111.301 34.3305 111.525 34.0625 111.811 33.8693C112.099 33.6742 112.431 33.5767 112.808 33.5767C113.045 33.5767 113.273 33.6203 113.493 33.7074C113.713 33.7926 113.91 33.9242 114.084 34.1023C114.26 34.2784 114.399 34.5009 114.501 34.7699C114.604 35.0369 114.655 35.3532 114.655 35.7188V35.9688H111.246V35.5227H114.138C114.138 35.2424 114.081 34.9905 113.967 34.767C113.856 34.5417 113.699 34.3636 113.499 34.233C113.3 34.1023 113.07 34.0369 112.808 34.0369C112.532 34.0369 112.288 34.1108 112.078 34.2585C111.868 34.4062 111.703 34.6013 111.584 34.8438C111.466 35.0862 111.407 35.3513 111.405 35.6392V35.9062C111.405 36.2528 111.464 36.5559 111.584 36.8153C111.705 37.0729 111.876 37.2727 112.098 37.4148C112.32 37.5568 112.582 37.6278 112.885 37.6278C113.091 37.6278 113.272 37.5956 113.428 37.5312C113.585 37.4669 113.716 37.3807 113.822 37.2727C113.93 37.1629 114.012 37.0426 114.067 36.9119L114.547 37.0682C114.481 37.2519 114.372 37.4214 114.22 37.5767C114.071 37.732 113.883 37.857 113.658 37.9517C113.434 38.0445 113.177 38.0909 112.885 38.0909ZM118.701 34.5938L118.238 34.7244C118.192 34.5937 118.128 34.4754 118.045 34.3693C117.961 34.2633 117.853 34.179 117.718 34.1165C117.585 34.054 117.421 34.0227 117.224 34.0227C116.928 34.0227 116.686 34.0928 116.496 34.233C116.307 34.3731 116.212 34.554 116.212 34.7756C116.212 34.9631 116.277 35.1155 116.406 35.233C116.536 35.3485 116.737 35.4403 117.008 35.5085L117.667 35.6705C118.032 35.7595 118.306 35.9006 118.488 36.0938C118.672 36.2869 118.763 36.5294 118.763 36.821C118.763 37.0672 118.695 37.286 118.559 37.4773C118.423 37.6686 118.232 37.8191 117.988 37.929C117.746 38.0369 117.464 38.0909 117.144 38.0909C116.718 38.0909 116.367 37.9953 116.09 37.804C115.814 37.6108 115.637 37.3324 115.559 36.9688L116.045 36.8494C116.107 37.1089 116.229 37.3049 116.411 37.4375C116.595 37.5701 116.836 37.6364 117.136 37.6364C117.471 37.6364 117.739 37.5616 117.94 37.4119C118.14 37.2604 118.241 37.071 118.241 36.8438C118.241 36.6676 118.182 36.5199 118.065 36.4006C117.947 36.2794 117.769 36.1903 117.531 36.1335L116.817 35.9631C116.439 35.8722 116.158 35.7282 115.977 35.5312C115.795 35.3343 115.704 35.09 115.704 34.7983C115.704 34.5578 115.769 34.3466 115.9 34.1648C116.031 33.9811 116.21 33.8371 116.44 33.733C116.669 33.6288 116.93 33.5767 117.224 33.5767C117.623 33.5767 117.942 33.6676 118.181 33.8494C118.422 34.0294 118.595 34.2775 118.701 34.5938Z" fill="white"/>
<path d="M70.6754 38.0994C70.4122 38.0994 70.1716 38.0483 69.9538 37.946C69.736 37.8419 69.5627 37.6922 69.4339 37.4972C69.3052 37.3002 69.2408 37.0616 69.2408 36.7812C69.2408 36.5653 69.2815 36.3835 69.3629 36.2358C69.4444 36.0881 69.5599 35.9669 69.7095 35.8722C69.8591 35.7775 70.0362 35.7027 70.2408 35.6477C70.4453 35.5928 70.6707 35.5502 70.9169 35.5199C71.1612 35.4896 71.3677 35.4631 71.5362 35.4403C71.7067 35.4176 71.8364 35.3816 71.9254 35.3324C72.0144 35.2831 72.0589 35.2036 72.0589 35.0938V34.9915C72.0589 34.6941 71.9699 34.4602 71.7919 34.2898C71.6158 34.1174 71.362 34.0312 71.0305 34.0312C70.7161 34.0312 70.4595 34.1004 70.2607 34.2386C70.0637 34.3769 69.9254 34.5398 69.8459 34.7273L69.3658 34.554C69.4643 34.3153 69.6006 34.125 69.7749 33.983C69.9491 33.839 70.1442 33.7358 70.3601 33.6733C70.576 33.6089 70.7947 33.5767 71.0163 33.5767C71.183 33.5767 71.3563 33.5985 71.5362 33.642C71.718 33.6856 71.8866 33.7614 72.0419 33.8693C72.1972 33.9754 72.3232 34.1241 72.4197 34.3153C72.5163 34.5047 72.5646 34.7453 72.5646 35.0369V38H72.0589V37.3097H72.0277C71.9671 37.4384 71.8771 37.5634 71.7578 37.6847C71.6385 37.8059 71.4889 37.9053 71.3089 37.983C71.129 38.0606 70.9179 38.0994 70.6754 38.0994ZM70.7436 37.6364C71.0125 37.6364 71.2455 37.5767 71.4425 37.4574C71.6394 37.3381 71.791 37.1799 71.897 36.983C72.005 36.7841 72.0589 36.5653 72.0589 36.3267V35.696C72.0211 35.732 71.9576 35.7642 71.8686 35.7926C71.7815 35.821 71.6802 35.8466 71.5646 35.8693C71.451 35.8902 71.3374 35.9081 71.2237 35.9233C71.1101 35.9384 71.0078 35.9517 70.9169 35.9631C70.6707 35.9934 70.4605 36.0407 70.2862 36.1051C70.112 36.1695 69.9785 36.2585 69.8857 36.3722C69.7929 36.4839 69.7464 36.6278 69.7464 36.804C69.7464 37.0691 69.8411 37.2746 70.0305 37.4205C70.2199 37.5644 70.4576 37.6364 70.7436 37.6364ZM74.4155 35.2727V38H73.9098V33.6364H74.4013V34.321H74.4467C74.549 34.0975 74.7081 33.9186 74.924 33.7841C75.1418 33.6477 75.4107 33.5795 75.7308 33.5795C76.0244 33.5795 76.282 33.6411 76.5036 33.7642C76.727 33.8854 76.9003 34.0644 77.0234 34.3011C77.1484 34.5379 77.2109 34.8286 77.2109 35.1733V38H76.7053V35.2045C76.7053 34.8466 76.6049 34.5634 76.4041 34.3551C76.2053 34.1468 75.9382 34.0426 75.603 34.0426C75.3738 34.0426 75.1702 34.0919 74.9922 34.1903C74.8142 34.2888 74.6731 34.4309 74.5689 34.6165C74.4666 34.8002 74.4155 35.0189 74.4155 35.2727ZM78.5483 38V33.6364H79.0568V38H78.5483ZM78.8068 32.8864C78.7027 32.8864 78.6136 32.8513 78.5398 32.7812C78.4659 32.7093 78.429 32.6231 78.429 32.5227C78.429 32.4223 78.4659 32.3371 78.5398 32.267C78.6136 32.1951 78.7027 32.1591 78.8068 32.1591C78.911 32.1591 79 32.1951 79.0739 32.267C79.1477 32.3371 79.1847 32.4223 79.1847 32.5227C79.1847 32.6231 79.1477 32.7093 79.0739 32.7812C79 32.8513 78.911 32.8864 78.8068 32.8864ZM80.3942 38V33.6364H80.8857V34.3068H80.9311C81.0182 34.0814 81.1631 33.9044 81.3658 33.7756C81.5703 33.6449 81.8156 33.5795 82.1016 33.5795C82.4027 33.5795 82.6499 33.6506 82.843 33.7926C83.0381 33.9328 83.1839 34.1259 83.2805 34.3722H83.3175C83.416 34.1297 83.576 33.9375 83.7976 33.7955C84.0211 33.6515 84.2919 33.5795 84.6101 33.5795C85.0154 33.5795 85.3355 33.7074 85.5703 33.9631C85.8052 34.2169 85.9226 34.5881 85.9226 35.0767V38H85.4169V35.0767C85.4169 34.732 85.3288 34.4735 85.1527 34.3011C84.9766 34.1288 84.7446 34.0426 84.4567 34.0426C84.1233 34.0426 83.8667 34.1449 83.6868 34.3494C83.5069 34.554 83.4169 34.8134 83.4169 35.1278V38H82.8999V35.0312C82.8999 34.7358 82.8175 34.4972 82.6527 34.3153C82.4879 34.1335 82.2559 34.0426 81.9567 34.0426C81.7559 34.0426 81.575 34.0919 81.4141 34.1903C81.255 34.2888 81.129 34.4261 81.0362 34.6023C80.9453 34.7765 80.8999 34.9773 80.8999 35.2045V38H80.3942ZM89.0256 38.0909C88.6184 38.0909 88.2661 37.9962 87.9688 37.8068C87.6714 37.6155 87.4413 37.3513 87.2784 37.0142C87.1174 36.6752 87.0369 36.285 87.0369 35.8438C87.0369 35.4044 87.1174 35.0142 87.2784 34.6733C87.4413 34.3305 87.6657 34.0625 87.9517 33.8693C88.2396 33.6742 88.572 33.5767 88.9489 33.5767C89.1856 33.5767 89.4138 33.6203 89.6335 33.7074C89.8532 33.7926 90.0502 33.9242 90.2244 34.1023C90.4006 34.2784 90.5398 34.5009 90.642 34.7699C90.7443 35.0369 90.7955 35.3532 90.7955 35.7188V35.9688H87.3864V35.5227H90.2784C90.2784 35.2424 90.2216 34.9905 90.108 34.767C89.9962 34.5417 89.84 34.3636 89.6392 34.233C89.4403 34.1023 89.2102 34.0369 88.9489 34.0369C88.6723 34.0369 88.429 34.1108 88.2188 34.2585C88.0085 34.4062 87.8438 34.6013 87.7244 34.8438C87.607 35.0862 87.5473 35.3513 87.5455 35.6392V35.9062C87.5455 36.2528 87.6051 36.5559 87.7244 36.8153C87.8456 37.0729 88.017 37.2727 88.2386 37.4148C88.4602 37.5568 88.7225 37.6278 89.0256 37.6278C89.232 37.6278 89.4129 37.5956 89.5682 37.5312C89.7254 37.4669 89.857 37.3807 89.9631 37.2727C90.071 37.1629 90.1525 37.0426 90.2074 36.9119L90.6875 37.0682C90.6212 37.2519 90.5123 37.4214 90.3608 37.5767C90.2112 37.732 90.0237 37.857 89.7983 37.9517C89.5748 38.0445 89.3172 38.0909 89.0256 38.0909Z" fill="#E83232"/>
<defs>
<filter id="filter0_d_244_169" x="5" y="24" width="123" height="18" filterUnits="userSpaceOnUse" color-interpolation-filters="sRGB">
<feFlood flood-opacity="0" result="BackgroundImageFix"/>
<feColorMatrix in="SourceAlpha" type="matrix" values="0 0 0 0 0 0 0 0 0 0 0 0 0 0 0 0 0 0 127 0" result="hardAlpha"/>
<feOffset dy="-2"/>
<feGaussianBlur stdDeviation="2"/>
<feComposite in2="hardAlpha" operator="out"/>
<feColorMatrix type="matrix" values="0 0 0 0 0 0 0 0 0 0 0 0 0 0 0 0 0 0 0.25 0"/>
<feBlend mode="normal" in2="BackgroundImageFix" result="effect1_dropShadow_244_169"/>
<feBlend mode="normal" in="SourceGraphic" in2="effect1_dropShadow_244_169" result="shape"/>
</filter>
</defs>
</svg>
