<svg width="164" height="25" viewBox="0 0 164 25" fill="none" xmlns="http://www.w3.org/2000/svg">
<rect x="9.02979" y="9.02967" width="5.94059" height="5.94059" rx="2.9703" fill="#E83232"/>
<path d="M14.9702 17.9406C14.9702 16.3002 16.3001 14.9703 17.9405 14.9703C18.8241 14.9703 19.6051 14.3961 19.8686 13.5528L20.1682 12.5941L20.4207 11.1683L20.6658 9.08914L20.9108 6.11884L21.3833 7.1908C22.3741 9.43854 22.6974 11.9238 22.3147 14.3503L22.274 14.6081C22.197 15.0964 22.1583 15.5899 22.1583 16.0842V16.4555V16.5743C22.1583 16.9188 21.8791 17.198 21.5346 17.198C21.1901 17.198 20.9108 17.4773 20.9108 17.8218V17.9406C20.9108 19.5811 19.581 20.9109 17.9405 20.9109C16.3001 20.9109 14.9702 19.5811 14.9702 17.9406Z" fill="#E83232"/>
<path d="M17.9404 9C16.3 9 14.9701 7.67015 14.9701 6.0297C14.9701 5.14615 14.3959 4.36511 13.5526 4.10157L12.5939 3.80198L11.1682 3.54951L9.08895 3.30446L6.11865 3.05941L7.19061 2.5869C9.43836 1.59612 11.9237 1.2728 14.3501 1.65552L14.6079 1.69619C15.0962 1.7732 15.5897 1.81188 16.084 1.81188H16.4553H16.5741C16.9186 1.81188 17.1979 2.09115 17.1979 2.43564C17.1979 2.78014 17.4771 3.05941 17.8216 3.05941H17.9404C19.5809 3.05941 20.9107 4.38925 20.9107 6.0297C20.9107 7.67015 19.5809 9 17.9404 9Z" fill="#E83232"/>
<path d="M9 6.05938C9 7.69983 7.67015 9.02968 6.0297 9.02968C5.14615 9.02968 4.36511 9.60388 4.10157 10.4472L3.80198 11.4059L3.54951 12.8317L3.30446 14.9109L3.05941 17.8812L2.5869 16.8092C1.59612 14.5615 1.2728 12.0762 1.65552 9.64973L1.69619 9.39189C1.7732 8.90364 1.81188 8.41011 1.81188 7.91581V7.54453V7.42572C1.81188 7.08122 2.09115 6.80195 2.43564 6.80195C2.78014 6.80195 3.05941 6.52269 3.05941 6.17819V6.05938C3.05941 4.41893 4.38925 3.08908 6.0297 3.08908C7.67015 3.08908 9 4.41893 9 6.05938Z" fill="#E83232"/>
<path d="M6.11873 15.0297C7.75918 15.0297 9.08903 16.3595 9.08903 18C9.08903 18.8835 9.66324 19.6646 10.5066 19.9281L11.4653 20.2277L12.891 20.4802L14.9702 20.7252L17.9405 20.9703L16.8686 21.4428C14.6208 22.4336 12.1355 22.7569 9.70909 22.3742L9.45125 22.3335C8.96299 22.2565 8.46946 22.2178 7.97517 22.2178H7.48507C7.14058 22.2178 6.86131 21.9385 6.86131 21.594C6.86131 21.2495 6.58204 20.9703 6.23755 20.9703H6.11873C4.47828 20.9703 3.14844 19.6404 3.14844 18C3.14844 16.3595 4.47828 15.0297 6.11873 15.0297Z" fill="#E83232"/>
<path d="M2.5 12C2.5 6.7533 6.7533 2.5 12 2.5C17.2467 2.5 21.5 6.7533 21.5 12C21.5 17.2467 17.2467 21.5 12 21.5C6.7533 21.5 2.5 17.2467 2.5 12Z" stroke="#E83232" stroke-width="5"/>
<path d="M34.75 17.3203C34.75 16.8828 34.8984 16.5156 35.1953 16.2188C35.5078 15.9062 35.8828 15.75 36.3203 15.75H39.9062L39.2969 14.0156C39.0469 13.375 38.7969 12.7734 38.5469 12.2109C38.3125 11.6328 38.0391 11.1094 37.7266 10.6406C37.4453 10.1719 37.125 9.92188 36.7656 9.89062C36.3906 9.92188 36.0547 10.1719 35.7578 10.6406C35.4609 11.1094 35.1875 11.6328 34.9375 12.2109C34.7031 12.7734 34.4609 13.375 34.2109 14.0156L31.9844 20.1094C31.8281 20.4375 31.625 20.7109 31.375 20.9297C31.1406 21.1328 30.7812 21.2344 30.2969 21.2344C29.8438 21.2344 29.4688 21.0781 29.1719 20.7656C28.8906 20.4531 28.7656 20.0781 28.7969 19.6406C28.8125 19.4375 28.8594 19.25 28.9375 19.0781L31.5156 12.4219C32.2344 10.6719 32.9531 9.25781 33.6719 8.17969C34.375 7.11719 35.4062 6.57812 36.7656 6.5625C38.1094 6.57812 39.1328 7.11719 39.8359 8.17969C40.5547 9.22656 41.2734 10.6406 41.9922 12.4219L44.5703 19.0781C44.6484 19.25 44.6953 19.4375 44.7109 19.6406C44.7422 20.0781 44.6094 20.4531 44.3125 20.7656C44.0312 21.0781 43.6641 21.2344 43.2109 21.2344C42.6953 21.2344 42.3125 21.1328 42.0625 20.9297C41.8281 20.7109 41.6328 20.4375 41.4766 20.1094L41.0312 18.8906H36.3203C35.8828 18.8906 35.5156 18.7344 35.2188 18.4219C34.9062 18.125 34.75 17.7578 34.75 17.3203ZM54.5312 9.96094C55.3438 9.96094 56.1406 10.0547 56.9219 10.2422C57.7188 10.4297 58.4766 10.7109 59.1953 11.0859C59.9141 11.4453 60.5469 11.9297 61.0938 12.5391C61.6562 13.1484 61.9609 13.875 62.0078 14.7188V15.7031V19.7109C61.9141 20.6484 61.3984 21.1562 60.4609 21.2344C60.0234 21.2344 59.6406 21.0938 59.3125 20.8125C59 20.5156 58.8438 20.1484 58.8438 19.7109V18.6797V15.4453C58.8125 14.9609 58.625 14.5625 58.2812 14.25C57.9531 13.9219 57.5781 13.6641 57.1562 13.4766C56.75 13.2891 56.3203 13.1484 55.8672 13.0547C55.4297 12.9609 54.9844 12.9141 54.5312 12.9141C54.0781 12.9141 53.625 12.9609 53.1719 13.0547C52.7344 13.1484 52.3047 13.2891 51.8828 13.4766C51.4766 13.6641 51.1016 13.9219 50.7578 14.25C50.4297 14.5625 50.25 14.9609 50.2188 15.4453V18.6797V19.7109C50.1406 20.6484 49.6328 21.1562 48.6953 21.2344C48.2578 21.2344 47.875 21.0938 47.5469 20.8125C47.2344 20.5156 47.0781 20.1484 47.0781 19.7109V15.7031V14.7188C47.125 13.875 47.4219 13.1484 47.9688 12.5391C48.5156 11.9297 49.1484 11.4453 49.8672 11.0859C50.5859 10.7109 51.3359 10.4297 52.1172 10.2422C52.9141 10.0547 53.7188 9.96094 54.5312 9.96094ZM66.6016 10.0781C67.0234 10.0938 67.3828 10.25 67.6797 10.5469C67.9766 10.8281 68.1328 11.1797 68.1484 11.6016V19.7109C68.0547 20.6484 67.5391 21.1562 66.6016 21.2344C66.1641 21.2344 65.7812 21.0938 65.4531 20.8125C65.1406 20.5156 64.9844 20.1484 64.9844 19.7109V11.6016C65 11.1641 65.1641 10.8047 65.4766 10.5234C65.7891 10.2266 66.1641 10.0781 66.6016 10.0781ZM64.6328 7.03125C64.6328 6.59375 64.8203 6.21875 65.1953 5.90625C65.5703 5.59375 66.0234 5.4375 66.5547 5.4375C67.0859 5.4375 67.5391 5.59375 67.9141 5.90625C68.2891 6.21875 68.4766 6.59375 68.4766 7.03125C68.4766 7.48438 68.2891 7.86719 67.9141 8.17969C67.5391 8.49219 67.0859 8.64844 66.5547 8.64844C66.0234 8.64844 65.5703 8.49219 65.1953 8.17969C64.8203 7.86719 64.6328 7.48438 64.6328 7.03125ZM84.1094 7.125C84.9062 7.14062 85.6172 7.39063 86.2422 7.875C86.8672 8.35938 87.3672 8.9375 87.7422 9.60938C88.1328 10.2812 88.4219 10.9922 88.6094 11.7422C88.7969 12.4922 88.8906 13.2578 88.8906 14.0391C88.8906 15.0703 88.7266 16.0859 88.3984 17.0859C88.0859 18.0703 87.5625 18.9453 86.8281 19.7109C86.1094 20.4766 85.2031 20.8906 84.1094 20.9531H81.3906V22.5234C81.2969 23.4609 80.7812 23.9688 79.8438 24.0469C79.4062 24.0469 79.0234 23.8984 78.6953 23.6016C78.3828 23.3203 78.2266 22.9609 78.2266 22.5234V20.9531H75.4609C74.3672 20.9062 73.4531 20.5 72.7188 19.7344C71.9844 18.9688 71.4609 18.0859 71.1484 17.0859C70.8516 16.0859 70.7031 15.0703 70.7031 14.0391C70.7031 13.0078 70.8594 12 71.1719 11.0156C71.4844 10.0156 72 9.13281 72.7188 8.36719C73.4531 7.58594 74.3672 7.17188 75.4609 7.125H84.1094ZM83.3125 17.8125C83.9062 17.7812 84.3984 17.5625 84.7891 17.1562C85.1953 16.7344 85.4844 16.25 85.6562 15.7031C85.8281 15.1562 85.9141 14.6016 85.9141 14.0391C85.9141 13.4766 85.8203 12.9297 85.6328 12.3984C85.4609 11.8516 85.1797 11.3672 84.7891 10.9453C84.3984 10.5234 83.9062 10.2969 83.3125 10.2656H76.1875C75.5938 10.2969 75.1016 10.5234 74.7109 10.9453C74.3203 11.3672 74.0312 11.8516 73.8438 12.3984C73.6719 12.9297 73.5859 13.4766 73.5859 14.0391C73.5859 14.6016 73.6719 15.1562 73.8438 15.7031C74.0156 16.25 74.2969 16.7344 74.6875 17.1562C75.0938 17.5625 75.5938 17.7812 76.1875 17.8125H78.2266V16.6641C78.2422 16.2266 78.4062 15.8672 78.7188 15.5859C79.0312 15.2891 79.4062 15.1406 79.8438 15.1406C80.2656 15.1562 80.625 15.3125 80.9219 15.6094C81.2188 15.8906 81.375 16.2422 81.3906 16.6641V17.8125H83.3125ZM98.9922 21.3516C98.1797 21.3516 97.375 21.2578 96.5781 21.0703C95.7969 20.8828 95.0469 20.6094 94.3281 20.25C93.6094 19.875 92.9766 19.3828 92.4297 18.7734C91.8828 18.1641 91.5859 17.4375 91.5391 16.5938V15.6094V11.6016C91.5391 11.1641 91.6953 10.8047 92.0078 10.5234C92.3359 10.2266 92.7188 10.0781 93.1562 10.0781C94.0938 10.1562 94.6016 10.6641 94.6797 11.6016V12.6328V15.8672C94.7109 16.3516 94.8906 16.7578 95.2188 17.0859C95.5625 17.3984 95.9375 17.6484 96.3438 17.8359C96.7656 18.0234 97.1953 18.1641 97.6328 18.2578C98.0859 18.3516 98.5391 18.3984 98.9922 18.3984C99.4453 18.3984 99.8906 18.3516 100.328 18.2578C100.781 18.1641 101.211 18.0234 101.617 17.8359C102.039 17.6484 102.414 17.3984 102.742 17.0859C103.086 16.7578 103.273 16.3516 103.305 15.8672V12.6328V11.6016C103.305 11.1641 103.461 10.8047 103.773 10.5234C104.102 10.2266 104.484 10.0781 104.922 10.0781C105.859 10.1562 106.375 10.6641 106.469 11.6016V15.6094V16.5938C106.422 17.4375 106.117 18.1641 105.555 18.7734C105.008 19.3828 104.375 19.875 103.656 20.25C102.938 20.6094 102.18 20.8828 101.383 21.0703C100.602 21.2578 99.8047 21.3516 98.9922 21.3516ZM114.32 20.9531C112.945 20.9062 111.906 20.5859 111.203 19.9922C110.5 19.3828 109.992 18.7031 109.68 17.9531C109.367 17.1875 109.211 16.4141 109.211 15.6328C109.211 14.8203 109.359 14.0391 109.656 13.2891C109.969 12.5234 110.477 11.8438 111.18 11.25C111.898 10.6406 112.805 10.3281 113.898 10.3125H121.492C122.586 10.3281 123.484 10.6406 124.188 11.25C124.906 11.8438 125.414 12.5234 125.711 13.2891C126.023 14.0391 126.18 14.8203 126.18 15.6328C126.18 16.4141 126.023 17.1875 125.711 17.9531C125.398 18.7031 124.891 19.3828 124.188 19.9922C123.484 20.5859 122.445 20.9062 121.07 20.9531H114.32ZM113.805 13.4531C113.508 13.4531 113.25 13.5781 113.031 13.8281C112.812 14.0625 112.648 14.3438 112.539 14.6719C112.445 14.9844 112.398 15.2969 112.398 15.6094C112.398 15.9375 112.445 16.2656 112.539 16.5938C112.648 16.9062 112.812 17.1875 113.031 17.4375C113.25 17.6719 113.508 17.7969 113.805 17.8125H121.586C121.883 17.7969 122.141 17.6719 122.359 17.4375C122.578 17.1875 122.734 16.9062 122.828 16.5938C122.938 16.2656 122.992 15.9375 122.992 15.6094C122.992 15.2969 122.938 14.9844 122.828 14.6719C122.734 14.3438 122.578 14.0625 122.359 13.8281C122.141 13.5781 121.883 13.4531 121.586 13.4531H113.805ZM133.961 6.75C134.398 6.75 134.773 6.89844 135.086 7.19531C135.398 7.47656 135.562 7.83594 135.578 8.27344V10.3125H143.547C143.984 10.3125 144.359 10.4609 144.672 10.7578C144.969 11.0703 145.117 11.4453 145.117 11.8828C145.117 12.3203 144.961 12.6953 144.648 13.0078C144.352 13.3047 143.984 13.4531 143.547 13.4531H135.578V13.9219C135.562 14.5625 135.602 15.1562 135.695 15.7031C135.805 16.2344 136.055 16.7109 136.445 17.1328C136.836 17.5547 137.328 17.7812 137.922 17.8125H143.641C144.078 17.8281 144.438 17.9922 144.719 18.3047C145.016 18.6172 145.164 18.9922 145.164 19.4297C145.148 19.8516 144.992 20.2109 144.695 20.5078C144.414 20.7891 144.062 20.9375 143.641 20.9531H137.125C136.031 20.8906 135.125 20.5234 134.406 19.8516C133.703 19.1641 133.195 18.3281 132.883 17.3438C132.586 16.3594 132.43 15.3125 132.414 14.2031V13.4531H129.719C129.281 13.4531 128.914 13.2969 128.617 12.9844C128.305 12.6875 128.148 12.3203 128.148 11.8828C128.148 11.4453 128.297 11.0781 128.594 10.7812C128.906 10.4688 129.281 10.3125 129.719 10.3125H132.414V8.27344C132.43 7.85156 132.586 7.5 132.883 7.21875C133.18 6.92188 133.539 6.76562 133.961 6.75ZM152.219 20.9531C150.844 20.9062 149.805 20.5859 149.102 19.9922C148.398 19.3828 147.891 18.7031 147.578 17.9531C147.266 17.1875 147.109 16.4141 147.109 15.6328C147.109 14.8203 147.258 14.0391 147.555 13.2891C147.867 12.5234 148.375 11.8438 149.078 11.25C149.797 10.6406 150.703 10.3281 151.797 10.3125H160.703C161.141 10.3125 161.508 10.4609 161.805 10.7578C162.117 11.0391 162.273 11.3828 162.273 11.7891C162.273 12.2109 162.117 12.5703 161.805 12.8672C161.508 13.1484 161.141 13.2891 160.703 13.2891H151.938C151.594 13.2891 151.289 13.4062 151.023 13.6406C150.773 13.875 150.586 14.1797 150.461 14.5547C150.352 14.9297 150.297 15.2969 150.297 15.6562C150.297 16.0469 150.352 16.4297 150.461 16.8047C150.586 17.1797 150.773 17.4844 151.023 17.7188C151.289 17.9375 151.594 18.0547 151.938 18.0703H160.703C161.141 18.0703 161.508 18.2109 161.805 18.4922C162.117 18.7734 162.273 19.1094 162.273 19.5C162.273 19.9062 162.117 20.25 161.805 20.5312C161.508 20.8125 161.141 20.9531 160.703 20.9531H152.219ZM161.992 15.5859C161.992 15.8828 161.859 16.1406 161.594 16.3594C161.359 16.5625 161.062 16.6641 160.703 16.6641H153.039C152.68 16.6641 152.375 16.5625 152.125 16.3594C151.875 16.1406 151.75 15.8828 151.75 15.5859C151.75 15.3047 151.875 15.0547 152.125 14.8359C152.375 14.6328 152.68 14.5312 153.039 14.5312H160.703C161.062 14.5312 161.367 14.6406 161.617 14.8594C161.867 15.0625 161.992 15.3047 161.992 15.5859Z" fill="white"/>
</svg>
