<svg width="24" height="24" viewBox="0 0 24 24" fill="none" xmlns="http://www.w3.org/2000/svg">
<path fill-rule="evenodd" clip-rule="evenodd" d="M10.1705 2.9545C10.6098 3.39384 10.6098 4.10616 10.1705 4.54549L5.71599 9H15.375C19.3099 9 22.5 12.1899 22.5 16.125V19.875C22.5 20.4963 21.9963 21 21.375 21C20.7537 21 20.25 20.4963 20.25 19.875V16.125C20.25 13.4326 18.0673 11.25 15.375 11.25H5.71599L10.1705 15.7045C10.6098 16.1439 10.6098 16.8561 10.1705 17.2954C9.73116 17.7348 9.01884 17.7348 8.5795 17.2954L2.2045 10.9205C1.76517 10.4812 1.76517 9.76884 2.2045 9.3295L8.5795 2.9545C9.01884 2.51517 9.73116 2.51517 10.1705 2.9545Z" fill="#919191" fill-opacity="0.4"/>
</svg>
